<svg xmlns="http://www.w3.org/2000/svg" version="1.1" xmlns:xlink="http://www.w3.org/1999/xlink" width="2000" height="739" viewBox="0 0 2000 739"><g transform="matrix(1,0,0,1,-2.446808510638334,-0.5941772661869322)"><svg viewBox="0 0 376 139" data-background-color="#ffffff" preserveAspectRatio="xMidYMid meet" height="739" width="2000" xmlns="http://www.w3.org/2000/svg" xmlns:xlink="http://www.w3.org/1999/xlink"><g id="tight-bounds" transform="matrix(1,0,0,1,0.46023999999999887,0.1120599999999854)"><svg viewBox="0 0 375.07953 138.77617999999998" height="138.77617999999998" width="375.07953"><g><svg></svg></g><g><svg viewBox="0 0 375.07953 138.77617999999998" height="138.77617999999998" width="375.07953"><g transform="matrix(1,0,0,1,-10.22024,-57.64930000000001)"><path d="M10.22 189.551v-131.902h375.08v131.902h-24.553v-4.379h20.174v-123.144h-366.322v123.144h20.174l0 4.379z" fill="#000000" fill-rule="nonzero" stroke="none" stroke-width="1" stroke-linecap="butt" stroke-linejoin="miter" stroke-miterlimit="10" stroke-dasharray="" stroke-dashoffset="0" font-family="none" font-weight="none" font-size="none" text-anchor="none" style="mix-blend-mode: normal" data-fill-palette-color="tertiary"></path><g><path d="M56.122 182.658v0c0 0.414-0.049 0.807-0.147 1.181-0.1 0.375-0.256 0.732-0.466 1.068-0.21 0.34-0.501 0.634-0.872 0.883-0.371 0.246-0.803 0.428-1.299 0.545v0l3.512 5.352h-1.664l-3.372-5.183h-2.411v5.183h-1.495v-12.443h4.57c0.21 0 0.401 0.006 0.57 0.017 0.17 0.012 0.387 0.042 0.653 0.09 0.265 0.05 0.501 0.117 0.706 0.201 0.203 0.086 0.417 0.215 0.642 0.387 0.225 0.172 0.411 0.375 0.56 0.61 0.148 0.232 0.271 0.53 0.37 0.893 0.096 0.361 0.143 0.766 0.143 1.216zM49.403 180.549v4.638h2.149c0.297 0 0.558-0.01 0.786-0.028 0.23-0.022 0.497-0.077 0.803-0.165 0.306-0.091 0.56-0.216 0.761-0.377 0.201-0.163 0.373-0.397 0.516-0.703 0.143-0.306 0.215-0.67 0.215-1.091v0c0-0.297-0.038-0.564-0.114-0.803-0.074-0.239-0.17-0.436-0.287-0.592-0.117-0.155-0.261-0.289-0.431-0.402-0.17-0.115-0.334-0.201-0.491-0.258-0.158-0.06-0.332-0.106-0.524-0.14-0.194-0.036-0.353-0.059-0.477-0.068-0.127-0.007-0.259-0.011-0.398-0.011v0zM63.26 182.87v0c0.421 0 0.799 0.05 1.134 0.151 0.335 0.103 0.613 0.233 0.836 0.391 0.222 0.158 0.414 0.363 0.573 0.617 0.16 0.253 0.283 0.499 0.37 0.735 0.084 0.237 0.148 0.521 0.194 0.854 0.048 0.332 0.078 0.622 0.089 0.868 0.012 0.244 0.018 0.533 0.018 0.868v0 0.681h-5.947c0 0.316 0.072 0.629 0.215 0.94 0.143 0.313 0.344 0.6 0.603 0.861 0.261 0.258 0.603 0.47 1.026 0.635 0.423 0.163 0.892 0.244 1.406 0.244v0c0.607 0 1.264-0.105 1.969-0.316v0l0.255 0.983c-0.94 0.32-1.863 0.481-2.769 0.481v0c-0.636 0-1.2-0.085-1.694-0.255-0.493-0.17-0.89-0.39-1.19-0.66-0.301-0.273-0.548-0.599-0.739-0.979-0.194-0.378-0.326-0.756-0.399-1.134-0.074-0.375-0.111-0.774-0.111-1.194v0c0-0.648 0.079-1.241 0.237-1.779 0.158-0.536 0.371-0.986 0.638-1.353 0.27-0.363 0.585-0.671 0.944-0.922 0.359-0.251 0.735-0.434 1.13-0.548 0.392-0.112 0.796-0.169 1.212-0.169zM62.952 184.111v0c-0.512 0-0.954 0.142-1.327 0.427-0.371 0.282-0.64 0.634-0.808 1.055-0.17 0.421-0.255 0.873-0.254 1.356v0h4.519c0-1.892-0.71-2.837-2.13-2.838zM68.752 187.508v0c0-0.746 0.104-1.417 0.312-2.012 0.21-0.595 0.5-1.083 0.868-1.464 0.368-0.378 0.799-0.668 1.291-0.871 0.495-0.201 1.028-0.301 1.6-0.302v0c0.689 0 1.386 0.154 2.092 0.463v0-4.868h1.438v13.233h-1.001l-0.237-0.542c-0.811 0.478-1.657 0.717-2.539 0.718v0c-0.361 0-0.714-0.044-1.058-0.133-0.344-0.086-0.686-0.238-1.026-0.456-0.337-0.215-0.633-0.485-0.886-0.81-0.256-0.323-0.463-0.738-0.621-1.245-0.155-0.509-0.233-1.08-0.233-1.711zM73.049 190.679v0c0.636 0 1.258-0.163 1.866-0.488v0-5.782c-0.624-0.28-1.252-0.42-1.884-0.42v0c-0.268 0-0.527 0.029-0.778 0.086-0.251 0.06-0.508 0.165-0.771 0.316-0.263 0.153-0.489 0.349-0.678 0.588-0.189 0.239-0.346 0.556-0.47 0.951-0.122 0.395-0.183 0.845-0.183 1.352v0c0 0.526 0.065 0.995 0.194 1.406 0.129 0.411 0.293 0.739 0.491 0.983 0.198 0.246 0.432 0.448 0.7 0.606 0.268 0.158 0.525 0.264 0.771 0.32 0.244 0.055 0.491 0.083 0.742 0.082zM79.459 180.897v-1.653h1.701v1.653zM79.592 191.687v-8.652h1.435v8.652zM87.77 182.87v0c0.124 0 0.24 0.001 0.348 0.004 0.108 0.002 0.213 0.01 0.316 0.021 0.1 0.012 0.188 0.02 0.262 0.025 0.072 0.007 0.157 0.019 0.255 0.036 0.096 0.017 0.165 0.03 0.208 0.04 0.045 0.01 0.118 0.028 0.218 0.053 0.103 0.026 0.166 0.042 0.191 0.047 0.024 0.005 0.092 0.025 0.204 0.061 0.115 0.036 0.181 0.056 0.197 0.061v0l-0.366 1.094c-0.784-0.215-1.474-0.323-2.069-0.323v0c-0.344 0-0.649 0.035-0.915 0.104-0.265 0.072-0.47 0.157-0.613 0.255-0.141 0.1-0.257 0.216-0.348 0.348-0.091 0.129-0.149 0.244-0.176 0.344-0.026 0.098-0.039 0.195-0.04 0.291v0c0 0.239 0.124 0.452 0.374 0.638 0.246 0.187 0.555 0.338 0.925 0.456 0.371 0.117 0.772 0.256 1.205 0.416 0.433 0.16 0.835 0.329 1.205 0.506 0.371 0.179 0.68 0.429 0.93 0.749 0.246 0.32 0.369 0.691 0.369 1.112v0c0 0.239-0.03 0.471-0.09 0.696-0.062 0.225-0.179 0.46-0.351 0.707-0.172 0.244-0.393 0.456-0.664 0.635-0.273 0.177-0.636 0.324-1.09 0.441-0.457 0.117-0.979 0.176-1.568 0.176v0c-0.894 0-1.876-0.219-2.945-0.657v0l0.406-1.087c0.6 0.222 1.092 0.38 1.474 0.474 0.383 0.093 0.758 0.14 1.126 0.14v0c1.423 0 2.134-0.453 2.134-1.36v0c0-0.198-0.069-0.373-0.208-0.523-0.141-0.151-0.328-0.275-0.559-0.373-0.234-0.096-0.499-0.195-0.793-0.298-0.297-0.103-0.598-0.197-0.904-0.284-0.306-0.088-0.606-0.204-0.9-0.347-0.297-0.141-0.561-0.298-0.793-0.47-0.234-0.172-0.422-0.396-0.563-0.671-0.139-0.275-0.208-0.585-0.208-0.929v0c0-0.21 0.033-0.424 0.1-0.642 0.067-0.22 0.193-0.451 0.377-0.693 0.184-0.244 0.414-0.457 0.689-0.638 0.273-0.184 0.638-0.336 1.097-0.456 0.459-0.12 0.977-0.179 1.553-0.179zM92.642 187.562v0c0-0.684 0.081-1.299 0.244-1.844 0.163-0.545 0.38-0.991 0.652-1.338 0.27-0.349 0.589-0.638 0.958-0.868 0.368-0.23 0.745-0.393 1.13-0.491 0.385-0.096 0.788-0.143 1.209-0.144v0c0.83 0 1.638 0.172 2.425 0.517v0l-0.348 1.051c-0.648-0.222-1.282-0.334-1.901-0.334v0c-0.304 0-0.589 0.028-0.858 0.083-0.27 0.057-0.538 0.159-0.803 0.305-0.265 0.146-0.493 0.334-0.682 0.563-0.189 0.232-0.342 0.534-0.459 0.907-0.117 0.373-0.176 0.802-0.176 1.288v0c0 0.531 0.061 0.998 0.183 1.403 0.122 0.407 0.282 0.735 0.481 0.986 0.198 0.251 0.436 0.456 0.714 0.613 0.277 0.158 0.558 0.268 0.843 0.33 0.282 0.06 0.587 0.09 0.915 0.09v0c0.548 0 1.096-0.096 1.646-0.287v0l0.352 0.99c-0.83 0.32-1.662 0.481-2.497 0.481v0c-0.385 0-0.754-0.038-1.108-0.115-0.354-0.077-0.713-0.215-1.077-0.416-0.366-0.201-0.682-0.457-0.947-0.768-0.265-0.308-0.482-0.721-0.649-1.237-0.165-0.517-0.248-1.105-0.247-1.765zM105.62 182.87v0c1.196 0 2.181 0.381 2.955 1.144 0.772 0.765 1.159 1.822 1.159 3.171v0c0 1.43-0.395 2.567-1.184 3.412-0.792 0.844-1.815 1.266-3.07 1.266v0c-1.198 0-2.176-0.396-2.934-1.188-0.758-0.792-1.137-1.864-1.138-3.217v0c0-1.397 0.386-2.511 1.159-3.343 0.775-0.83 1.792-1.245 3.053-1.245zM105.498 184.093v0c-0.72 0-1.348 0.277-1.884 0.832-0.538 0.555-0.807 1.316-0.807 2.285v0c0 0.964 0.263 1.776 0.79 2.436 0.526 0.66 1.206 0.99 2.041 0.99v0c0.77 0 1.412-0.292 1.926-0.875 0.514-0.583 0.771-1.345 0.771-2.285v0c0-0.538-0.084-1.026-0.251-1.464-0.165-0.438-0.384-0.794-0.657-1.069-0.27-0.275-0.573-0.485-0.907-0.631-0.332-0.146-0.673-0.219-1.022-0.219zM117.511 183.035h1.488l-3.038 8.652h-1.489l-3.031-8.652h1.579l2.242 7.224zM124.868 182.87v0c0.421 0 0.799 0.05 1.133 0.151 0.337 0.103 0.616 0.233 0.836 0.391 0.222 0.158 0.414 0.363 0.574 0.617 0.16 0.253 0.283 0.499 0.369 0.735 0.084 0.237 0.149 0.521 0.198 0.854 0.045 0.332 0.074 0.622 0.086 0.868 0.012 0.244 0.018 0.533 0.018 0.868v0 0.681h-5.948c0 0.316 0.072 0.629 0.216 0.94 0.143 0.313 0.346 0.6 0.606 0.861 0.258 0.258 0.599 0.47 1.022 0.635 0.423 0.163 0.892 0.244 1.406 0.244v0c0.607 0 1.264-0.105 1.97-0.316v0l0.254 0.983c-0.94 0.32-1.862 0.481-2.765 0.481v0c-0.636 0-1.202-0.085-1.697-0.255-0.493-0.17-0.89-0.39-1.191-0.66-0.299-0.273-0.545-0.599-0.739-0.979-0.194-0.378-0.326-0.756-0.398-1.134-0.074-0.375-0.111-0.774-0.111-1.194v0c0-0.648 0.079-1.241 0.236-1.779 0.158-0.536 0.372-0.986 0.643-1.353 0.268-0.363 0.581-0.671 0.939-0.922 0.359-0.251 0.735-0.434 1.13-0.548 0.395-0.112 0.799-0.169 1.213-0.169zM124.563 184.111v0c-0.514 0-0.957 0.142-1.327 0.427-0.371 0.282-0.641 0.634-0.811 1.055-0.17 0.421-0.255 0.873-0.255 1.356v0h4.52c0-1.892-0.709-2.837-2.127-2.838zM131.805 183.035l0.269 0.649c0.732-0.543 1.538-0.814 2.418-0.814v0c0.607 0 1.16 0.114 1.657 0.341v0l-0.438 1.148c-0.457-0.177-0.93-0.265-1.42-0.266v0c-0.729 0-1.416 0.202-2.059 0.606v0 6.988h-1.435v-8.652zM148.331 179.129v0c0.957 0 1.986 0.166 3.088 0.498v0l-0.481 1.36c-1.05-0.304-1.961-0.456-2.733-0.456v0c-0.863 0-1.594 0.182-2.192 0.546-0.598 0.366-0.897 0.838-0.896 1.416v0c0 0.32 0.096 0.606 0.287 0.858 0.194 0.251 0.448 0.456 0.764 0.613 0.313 0.158 0.672 0.313 1.076 0.466 0.402 0.155 0.812 0.298 1.23 0.427 0.416 0.127 0.826 0.289 1.23 0.488 0.402 0.198 0.76 0.416 1.076 0.653 0.316 0.237 0.57 0.545 0.765 0.925 0.191 0.38 0.287 0.809 0.286 1.288v0c0 0.332-0.053 0.664-0.157 0.994-0.105 0.33-0.28 0.656-0.524 0.979-0.246 0.325-0.55 0.61-0.911 0.854-0.363 0.246-0.82 0.445-1.37 0.595-0.552 0.153-1.167 0.23-1.844 0.23-0.677 0-1.3-0.071-1.869-0.212-0.569-0.139-1.208-0.349-1.915-0.631v0l0.509-1.442c1.459 0.543 2.611 0.814 3.458 0.814v0c0.887 0 1.609-0.178 2.166-0.534 0.56-0.356 0.839-0.832 0.84-1.428v0c0-0.397-0.124-0.74-0.373-1.03-0.249-0.289-0.57-0.523-0.965-0.699-0.395-0.179-0.831-0.347-1.309-0.502-0.478-0.153-0.955-0.319-1.432-0.499-0.476-0.177-0.911-0.383-1.305-0.617-0.395-0.232-0.715-0.546-0.962-0.943-0.249-0.399-0.373-0.867-0.373-1.403v0c0-0.478 0.115-0.936 0.345-1.374 0.232-0.44 0.552-0.824 0.961-1.151 0.409-0.33 0.919-0.593 1.532-0.789 0.612-0.196 1.278-0.294 1.998-0.294zM159.031 190.557l0.201 0.979c-0.847 0.218-1.507 0.326-1.98 0.327-0.471 0-0.87-0.077-1.199-0.23-0.328-0.151-0.576-0.366-0.746-0.645-0.167-0.282-0.288-0.585-0.362-0.908-0.072-0.323-0.108-0.695-0.108-1.116v0-4.799h-1.165v-1.13h1.165v-2.479h1.435v2.479h2.637v1.13h-2.637v4.781c0 1.196 0.472 1.794 1.417 1.794v0c0.17 0 0.617-0.061 1.342-0.183zM163.898 192.117l-3.615-9.082h1.578l2.765 7.339 2.576-7.339h1.489l-4.994 13.301h-1.531zM170.879 191.687v-13.233h1.438v13.233zM179.366 182.87v0c0.421 0 0.799 0.05 1.133 0.151 0.337 0.103 0.616 0.233 0.836 0.391 0.222 0.158 0.414 0.363 0.574 0.617 0.16 0.253 0.283 0.499 0.369 0.735 0.084 0.237 0.149 0.521 0.198 0.854 0.045 0.332 0.074 0.622 0.086 0.868 0.012 0.244 0.018 0.533 0.018 0.868v0 0.681h-5.948c0 0.316 0.072 0.629 0.216 0.94 0.143 0.313 0.346 0.6 0.606 0.861 0.258 0.258 0.599 0.47 1.022 0.635 0.423 0.163 0.892 0.244 1.406 0.244v0c0.607 0 1.264-0.105 1.969-0.316v0l0.255 0.983c-0.94 0.32-1.862 0.481-2.765 0.481v0c-0.636 0-1.202-0.085-1.697-0.255-0.493-0.17-0.89-0.39-1.191-0.66-0.301-0.273-0.548-0.599-0.739-0.979-0.194-0.378-0.326-0.756-0.398-1.134-0.074-0.375-0.111-0.774-0.111-1.194v0c0-0.648 0.079-1.241 0.236-1.779 0.158-0.536 0.371-0.986 0.639-1.353 0.27-0.363 0.585-0.671 0.943-0.922 0.359-0.251 0.735-0.434 1.13-0.548 0.395-0.112 0.799-0.169 1.213-0.169zM179.061 184.111v0c-0.514 0-0.957 0.142-1.327 0.427-0.371 0.282-0.641 0.634-0.811 1.055-0.17 0.421-0.255 0.873-0.255 1.356v0h4.52c0-1.892-0.709-2.837-2.127-2.838zM184.086 193.613l1.385-3.415h1.574l-1.384 3.415zM204.367 182.658v0c0 0.414-0.049 0.807-0.147 1.181-0.1 0.375-0.256 0.732-0.466 1.068-0.21 0.34-0.501 0.634-0.872 0.883-0.371 0.246-0.803 0.428-1.298 0.545v0l3.512 5.352h-1.665l-3.372-5.183h-2.407v5.183h-1.499v-12.443h4.573c0.208 0 0.397 0.006 0.567 0.017 0.17 0.012 0.387 0.042 0.653 0.09 0.265 0.05 0.501 0.117 0.707 0.201 0.203 0.086 0.417 0.215 0.642 0.387 0.225 0.172 0.411 0.375 0.559 0.61 0.151 0.232 0.274 0.53 0.37 0.893 0.096 0.361 0.143 0.766 0.143 1.216zM197.652 180.549v4.638h2.145c0.297 0 0.558-0.01 0.786-0.028 0.23-0.022 0.497-0.077 0.804-0.165 0.306-0.091 0.56-0.216 0.76-0.377 0.203-0.163 0.375-0.397 0.516-0.703 0.143-0.306 0.215-0.67 0.216-1.091v0c0-0.297-0.038-0.564-0.115-0.803-0.074-0.239-0.17-0.436-0.287-0.592-0.117-0.155-0.261-0.289-0.43-0.402-0.17-0.115-0.334-0.201-0.492-0.258-0.155-0.06-0.33-0.106-0.524-0.14-0.194-0.036-0.353-0.059-0.477-0.068-0.127-0.007-0.259-0.011-0.398-0.011v0zM211.506 182.87v0c0.421 0 0.799 0.05 1.133 0.151 0.335 0.103 0.613 0.233 0.836 0.391 0.222 0.158 0.414 0.363 0.574 0.617 0.16 0.253 0.283 0.499 0.369 0.735 0.084 0.237 0.149 0.521 0.198 0.854 0.045 0.332 0.074 0.622 0.086 0.868 0.012 0.244 0.018 0.533 0.018 0.868v0 0.681h-5.948c0 0.316 0.072 0.629 0.215 0.94 0.143 0.313 0.344 0.6 0.603 0.861 0.261 0.258 0.603 0.47 1.026 0.635 0.423 0.163 0.892 0.244 1.406 0.244v0c0.607 0 1.264-0.105 1.969-0.316v0l0.255 0.983c-0.94 0.32-1.862 0.481-2.766 0.481v0c-0.638 0-1.204-0.085-1.696-0.255-0.493-0.17-0.89-0.39-1.191-0.66-0.301-0.273-0.548-0.599-0.739-0.979-0.194-0.378-0.326-0.756-0.398-1.134-0.074-0.375-0.111-0.774-0.111-1.194v0c0-0.648 0.079-1.241 0.236-1.779 0.158-0.536 0.371-0.986 0.639-1.353 0.27-0.363 0.585-0.671 0.943-0.922 0.359-0.251 0.735-0.434 1.13-0.548 0.395-0.112 0.799-0.169 1.213-0.169zM211.197 184.111v0c-0.512 0-0.953 0.142-1.324 0.427-0.371 0.282-0.641 0.634-0.81 1.055-0.17 0.421-0.255 0.873-0.255 1.356v0h4.52c0-1.892-0.71-2.837-2.131-2.838zM217.302 180.897v-1.653h1.7v1.653zM217.435 191.687v-8.652h1.435v8.652zM225.481 184.19v0c-0.502 0-1.177 0.222-2.023 0.667v0 6.83h-1.435v-8.652h1.008l0.305 0.717c1.045-0.588 1.95-0.882 2.715-0.882v0c0.882 0 1.575 0.32 2.077 0.961v0c1.143-0.636 2.168-0.954 3.074-0.954v0c0.438 0 0.823 0.06 1.155 0.18 0.332 0.12 0.603 0.283 0.811 0.491 0.206 0.206 0.374 0.465 0.505 0.778 0.132 0.313 0.222 0.643 0.273 0.99 0.05 0.347 0.075 0.739 0.075 1.177v0 5.194h-1.438v-5.291c0-0.105-0.002-0.202-0.007-0.29-0.005-0.091-0.019-0.216-0.043-0.377-0.024-0.163-0.06-0.306-0.108-0.431-0.045-0.124-0.114-0.261-0.204-0.408-0.091-0.146-0.2-0.267-0.327-0.363-0.129-0.096-0.293-0.176-0.491-0.24-0.198-0.065-0.421-0.097-0.667-0.097v0c-0.536 0-1.245 0.228-2.127 0.685v0c0.081 0.344 0.122 0.904 0.122 1.679v0 5.133h-1.435v-5.323c0-0.153-0.006-0.298-0.018-0.434-0.012-0.139-0.053-0.322-0.122-0.549-0.072-0.227-0.165-0.421-0.28-0.581-0.117-0.16-0.298-0.303-0.542-0.427-0.242-0.122-0.526-0.183-0.853-0.183zM240.073 182.87v0c0.641 0 1.185 0.074 1.632 0.222 0.447 0.148 0.792 0.366 1.033 0.653 0.244 0.285 0.417 0.603 0.52 0.954 0.105 0.349 0.158 0.752 0.158 1.209v0 5.779h-1.015l-0.334-0.789c-0.705 0.643-1.516 0.965-2.432 0.965v0c-0.818 0-1.51-0.246-2.077-0.739-0.567-0.495-0.85-1.073-0.85-1.733v0c0-0.349 0.065-0.664 0.194-0.943 0.129-0.282 0.314-0.517 0.556-0.703 0.242-0.187 0.518-0.346 0.828-0.477 0.308-0.132 0.668-0.232 1.08-0.302 0.411-0.069 0.825-0.118 1.241-0.147 0.414-0.031 0.869-0.047 1.367-0.046v0-0.682c0-0.198-0.008-0.371-0.025-0.516-0.014-0.146-0.062-0.322-0.144-0.528-0.081-0.203-0.193-0.371-0.333-0.502-0.139-0.132-0.348-0.245-0.628-0.341-0.282-0.096-0.616-0.143-1.001-0.143v0c-0.595 0-1.365 0.13-2.31 0.391v0l-0.273-1.051c0.957-0.354 1.894-0.531 2.813-0.531zM241.974 189.847v-1.987h-0.535c-0.335 0-0.624 0.006-0.868 0.018-0.246 0.012-0.534 0.045-0.864 0.1-0.328 0.055-0.597 0.133-0.807 0.233-0.21 0.098-0.391 0.243-0.542 0.434-0.148 0.189-0.222 0.415-0.222 0.678v0c0 0.368 0.185 0.695 0.556 0.979 0.371 0.287 0.813 0.43 1.327 0.431v0c0.753 0 1.405-0.295 1.955-0.886zM250.134 182.859v0c0.689 0 1.485 0.231 2.389 0.693v0l0.187-0.517h1.004v9.194c0 0.177-0.005 0.347-0.014 0.509-0.012 0.163-0.048 0.393-0.108 0.692-0.057 0.297-0.139 0.568-0.244 0.815-0.105 0.244-0.264 0.508-0.477 0.792-0.213 0.282-0.464 0.52-0.753 0.714-0.289 0.191-0.664 0.352-1.123 0.481-0.457 0.129-0.969 0.194-1.535 0.193v0c-0.894 0-1.788-0.187-2.679-0.559v0l0.401-1.044c0.72 0.268 1.418 0.402 2.095 0.402v0c2.002 0 3.002-1.106 3.002-3.318v0-0.639c-0.753 0.397-1.515 0.595-2.284 0.596v0c-0.373 0-0.738-0.048-1.095-0.144-0.356-0.098-0.705-0.259-1.047-0.484-0.342-0.225-0.64-0.505-0.893-0.839-0.253-0.335-0.458-0.762-0.613-1.281-0.155-0.517-0.233-1.093-0.234-1.729v0c0-0.67 0.093-1.275 0.28-1.815 0.189-0.54 0.426-0.974 0.71-1.302 0.287-0.328 0.616-0.601 0.987-0.821 0.371-0.222 0.726-0.377 1.065-0.463 0.337-0.084 0.664-0.126 0.979-0.126zM250.221 184.025v0c-0.811 0-1.464 0.292-1.959 0.875-0.497 0.583-0.746 1.357-0.746 2.321v0c0 0.641 0.102 1.218 0.305 1.733 0.206 0.514 0.53 0.93 0.972 1.248 0.445 0.318 0.979 0.477 1.603 0.477v0c0.636 0 1.264-0.166 1.883-0.499v0-5.667c-0.799-0.325-1.485-0.488-2.058-0.488zM256.738 180.897v-1.653h1.697v1.653zM256.867 191.687v-8.652h1.439v8.652zM261.459 191.687v-8.652h1.004l0.316 0.735c1.117-0.607 2.133-0.911 3.049-0.911v0c0.473 0 0.885 0.074 1.234 0.223 0.352 0.151 0.623 0.338 0.814 0.563 0.194 0.225 0.347 0.507 0.459 0.846 0.115 0.342 0.188 0.668 0.219 0.98 0.033 0.308 0.05 0.661 0.05 1.058v0 5.158h-1.438v-5.255c0-1.519-0.653-2.278-1.959-2.278v0c-0.679 0-1.45 0.225-2.313 0.675v0 6.858zM275.477 182.87v0c0.421 0 0.8 0.05 1.137 0.151 0.335 0.103 0.613 0.233 0.836 0.391 0.22 0.158 0.411 0.363 0.574 0.617 0.16 0.253 0.282 0.499 0.366 0.735 0.086 0.237 0.152 0.521 0.197 0.854 0.048 0.332 0.078 0.622 0.09 0.868 0.01 0.244 0.014 0.533 0.014 0.868v0 0.681h-5.944c0 0.316 0.071 0.629 0.212 0.94 0.143 0.313 0.346 0.6 0.606 0.861 0.261 0.258 0.603 0.47 1.026 0.635 0.423 0.163 0.891 0.244 1.402 0.244v0c0.607 0 1.265-0.105 1.973-0.316v0l0.255 0.983c-0.942 0.32-1.865 0.481-2.769 0.481v0c-0.636 0-1.2-0.085-1.693-0.255-0.495-0.17-0.892-0.39-1.191-0.66-0.301-0.273-0.549-0.599-0.743-0.979-0.191-0.378-0.324-0.756-0.398-1.134-0.072-0.375-0.108-0.774-0.107-1.194v0c0-0.648 0.079-1.241 0.236-1.779 0.158-0.536 0.371-0.986 0.639-1.353 0.268-0.363 0.581-0.671 0.94-0.922 0.359-0.251 0.735-0.434 1.129-0.548 0.395-0.112 0.799-0.169 1.213-0.169zM275.172 184.111v0c-0.514 0-0.957 0.142-1.327 0.427-0.371 0.282-0.641 0.634-0.811 1.055-0.17 0.421-0.255 0.873-0.255 1.356v0h4.52c0-1.892-0.709-2.837-2.127-2.838zM291.923 179.129v0c0.959 0 1.99 0.166 3.093 0.498v0l-0.481 1.36c-1.052-0.304-1.963-0.456-2.733-0.456v0c-0.863 0-1.594 0.182-2.192 0.546-0.6 0.366-0.9 0.838-0.901 1.416v0c0 0.32 0.097 0.606 0.291 0.858 0.191 0.251 0.445 0.456 0.76 0.613 0.316 0.158 0.676 0.313 1.08 0.466 0.402 0.155 0.812 0.298 1.231 0.427 0.416 0.127 0.826 0.289 1.23 0.488 0.402 0.198 0.76 0.416 1.076 0.653 0.316 0.237 0.569 0.545 0.76 0.925 0.194 0.38 0.291 0.809 0.291 1.288v0c0 0.332-0.053 0.664-0.158 0.994-0.105 0.33-0.281 0.656-0.527 0.979-0.244 0.325-0.546 0.61-0.908 0.854-0.363 0.246-0.821 0.445-1.373 0.595-0.55 0.153-1.163 0.23-1.841 0.23-0.679 0-1.303-0.071-1.872-0.212-0.569-0.139-1.206-0.349-1.912-0.631v0l0.506-1.442c1.461 0.543 2.615 0.814 3.461 0.814v0c0.887 0 1.609-0.178 2.167-0.534 0.557-0.356 0.836-0.832 0.836-1.428v0c0-0.397-0.124-0.74-0.373-1.03-0.246-0.289-0.567-0.523-0.962-0.699-0.395-0.179-0.831-0.347-1.309-0.502-0.478-0.153-0.955-0.319-1.431-0.499-0.476-0.177-0.911-0.383-1.306-0.617-0.395-0.232-0.716-0.546-0.965-0.943-0.246-0.399-0.369-0.867-0.369-1.403v0c0-0.478 0.115-0.936 0.344-1.374 0.232-0.44 0.551-0.824 0.958-1.151 0.409-0.33 0.921-0.593 1.535-0.789 0.612-0.196 1.277-0.294 1.994-0.294zM302.627 190.557l0.201 0.979c-0.847 0.218-1.507 0.326-1.98 0.327-0.473 0-0.873-0.077-1.198-0.23-0.328-0.151-0.576-0.366-0.746-0.645-0.17-0.282-0.291-0.585-0.362-0.908-0.074-0.323-0.111-0.695-0.112-1.116v0-4.799h-1.162v-1.13h1.162v-2.479h1.439v2.479h2.636v1.13h-2.636v4.781c0 1.196 0.472 1.794 1.417 1.794v0c0.17 0 0.617-0.061 1.341-0.183zM308.793 182.87v0c1.196 0 2.18 0.381 2.952 1.144 0.775 0.765 1.162 1.822 1.163 3.171v0c0 1.43-0.396 2.567-1.188 3.412-0.792 0.844-1.815 1.266-3.07 1.266v0c-1.196 0-2.173-0.396-2.931-1.188-0.76-0.792-1.141-1.864-1.14-3.217v0c0-1.397 0.387-2.511 1.162-3.343 0.772-0.83 1.79-1.245 3.052-1.245zM308.668 184.093v0c-0.717 0-1.345 0.277-1.883 0.832-0.536 0.555-0.803 1.316-0.804 2.285v0c0 0.964 0.263 1.776 0.789 2.436 0.524 0.66 1.203 0.99 2.038 0.99v0c0.772 0 1.414-0.292 1.926-0.875 0.514-0.583 0.771-1.345 0.771-2.285v0c0-0.538-0.083-1.026-0.247-1.464-0.167-0.438-0.386-0.794-0.657-1.069-0.273-0.275-0.575-0.485-0.907-0.631-0.332-0.146-0.674-0.219-1.026-0.219zM316.631 183.035l0.269 0.649c0.729-0.543 1.535-0.814 2.418-0.814v0c0.607 0 1.159 0.114 1.653 0.341v0l-0.437 1.148c-0.454-0.177-0.927-0.265-1.417-0.266v0c-0.729 0-1.416 0.202-2.059 0.606v0 6.988h-1.435v-8.652zM322.507 180.897v-1.653h1.696v1.653zM322.636 191.687v-8.652h1.438v8.652zM330.947 182.87v0c0.421 0 0.799 0.05 1.133 0.151 0.337 0.103 0.617 0.233 0.84 0.391 0.22 0.158 0.41 0.363 0.57 0.617 0.163 0.253 0.286 0.499 0.37 0.735 0.084 0.237 0.149 0.521 0.197 0.854 0.045 0.332 0.074 0.622 0.086 0.868 0.012 0.244 0.018 0.533 0.018 0.868v0 0.681h-5.944c0 0.316 0.071 0.629 0.212 0.94 0.143 0.313 0.346 0.6 0.606 0.861 0.258 0.258 0.599 0.47 1.022 0.635 0.423 0.163 0.892 0.244 1.406 0.244v0c0.607 0 1.265-0.105 1.973-0.316v0l0.251 0.983c-0.94 0.32-1.862 0.481-2.765 0.481v0c-0.636 0-1.2-0.085-1.693-0.255-0.495-0.17-0.893-0.39-1.195-0.66-0.299-0.273-0.545-0.599-0.739-0.979-0.191-0.378-0.324-0.756-0.398-1.134-0.072-0.375-0.108-0.774-0.107-1.194v0c0-0.648 0.079-1.241 0.236-1.779 0.155-0.536 0.368-0.986 0.639-1.353 0.268-0.363 0.581-0.671 0.94-0.922 0.359-0.251 0.735-0.434 1.13-0.548 0.395-0.112 0.799-0.169 1.212-0.169zM330.642 184.111v0c-0.514 0-0.957 0.142-1.327 0.427-0.371 0.282-0.641 0.634-0.811 1.055-0.17 0.421-0.255 0.873-0.255 1.356v0h4.52c0-1.892-0.709-2.837-2.127-2.838zM340.467 182.87v0c0.122 0 0.238 0.001 0.348 0.004 0.108 0.002 0.212 0.01 0.312 0.021 0.103 0.012 0.191 0.02 0.265 0.025 0.072 0.007 0.155 0.019 0.251 0.036 0.098 0.017 0.169 0.03 0.212 0.04 0.043 0.01 0.116 0.028 0.219 0.053 0.103 0.026 0.166 0.042 0.19 0.047 0.022 0.005 0.09 0.025 0.205 0.061 0.115 0.036 0.181 0.056 0.197 0.061v0l-0.37 1.094c-0.782-0.215-1.471-0.323-2.066-0.323v0c-0.344 0-0.649 0.035-0.915 0.104-0.265 0.072-0.47 0.157-0.613 0.255-0.143 0.1-0.261 0.216-0.351 0.348-0.088 0.129-0.146 0.244-0.173 0.344-0.026 0.098-0.039 0.195-0.039 0.291v0c0 0.239 0.123 0.452 0.369 0.638 0.249 0.187 0.558 0.338 0.929 0.456 0.371 0.117 0.772 0.256 1.206 0.416 0.433 0.16 0.835 0.329 1.205 0.506 0.371 0.179 0.679 0.429 0.925 0.749 0.249 0.32 0.373 0.691 0.373 1.112v0c0 0.239-0.03 0.471-0.089 0.696-0.062 0.225-0.179 0.46-0.352 0.707-0.172 0.244-0.395 0.456-0.667 0.635-0.27 0.177-0.634 0.324-1.09 0.441-0.454 0.117-0.977 0.176-1.568 0.176v0c-0.892 0-1.872-0.219-2.941-0.657v0l0.401-1.087c0.603 0.222 1.095 0.38 1.478 0.474 0.383 0.093 0.757 0.14 1.123 0.14v0c1.425 0 2.138-0.453 2.138-1.36v0c0-0.198-0.069-0.373-0.208-0.523-0.141-0.151-0.329-0.275-0.563-0.373-0.232-0.096-0.496-0.195-0.793-0.298-0.294-0.103-0.594-0.197-0.9-0.284-0.306-0.088-0.607-0.204-0.904-0.347-0.294-0.141-0.558-0.298-0.793-0.47-0.232-0.172-0.418-0.396-0.56-0.671-0.139-0.275-0.208-0.585-0.208-0.929v0c0-0.21 0.033-0.424 0.101-0.642 0.067-0.22 0.193-0.451 0.376-0.693 0.184-0.244 0.413-0.457 0.686-0.638 0.275-0.184 0.642-0.336 1.101-0.456 0.457-0.12 0.974-0.179 1.553-0.179zM345.776 191.687v-1.84h1.836v1.84z" fill="#000000" fill-rule="nonzero" stroke="none" stroke-width="1" stroke-linecap="butt" stroke-linejoin="miter" stroke-miterlimit="10" stroke-dasharray="" stroke-dashoffset="0" font-family="none" font-weight="none" font-size="none" text-anchor="none" style="mix-blend-mode: normal" data-fill-palette-color="secondary" id="text-1"></path></g></g><g transform="matrix(1,0,0,1,29.33176499999999,45.11293160109476)"><svg viewBox="0 0 316.416 48.55031679781047" height="48.55031679781047" width="316.416"><g><svg viewBox="0 0 316.416 48.55031679781047" height="48.55031679781047" width="316.416"><g><svg viewBox="0 0 316.416 48.55031679781047" height="48.55031679781047" width="316.416"><g id="textblocktransform"><svg viewBox="0 0 316.416 48.55031679781047" height="48.55031679781047" width="316.416" id="textblock"><g><svg viewBox="0 0 316.416 48.55031679781047" height="48.55031679781047" width="316.416"><g transform="matrix(1,0,0,1,0,0)"><svg width="316.416" viewBox="3.5 -38.25 292.27 44.85" height="48.55031679781047" data-palette-color="#6b7280"><path d="M6.5-33L3.5-33 3.5-35 14.5-35Q26.65-35 29.9-29.4L29.9-29.4Q31.15-27.2 31.15-24.05L31.15-24.05Q31.15-16.75 22.85-14.25L22.85-14.25Q26-13.2 27.05-9.9L27.05-9.9 28.55-4.9Q28.9-3.65 29.45-3.15 30-2.65 31.3-2.65 32.6-2.65 34.35-4.1L34.35-4.1 35.25-2.9Q31.25 0.75 26.75 0.75L26.75 0.75Q24.45 0.75 23.05-0.05 21.65-0.85 21.05-2.85L21.05-2.85 18.7-10.55Q18.25-12 17.3-12.55 16.35-13.1 14-13.15L14-13.15 14-2 18-2 18 0 3.5 0 3.5-2 6.5-2 6.5-33ZM14.5-33L14.5-33 14-33 14-15.15 14.5-15.15Q18.45-15.15 21.05-17.48 23.65-19.8 23.65-24.05 23.65-28.3 21.05-30.65 18.45-33 14.5-33ZM57.1-25L64.6-25 64.6-5.55Q64.6-4.2 65.25-3.43 65.9-2.65 67.25-2.65 68.6-2.65 70.35-4.1L70.35-4.1 71.25-2.9Q67.25 0.75 63.25 0.75L63.25 0.75Q58.5 0.75 57.4-3.7L57.4-3.7Q54.8 0.75 49.75 0.75L49.75 0.75Q44 0.75 41-2.98 38-6.7 38-12.48 38-18.25 41.22-22 44.45-25.75 50.25-25.75L50.25-25.75Q54.7-25.75 57.1-22.2L57.1-22.2 57.1-25ZM47.15-20.1Q45.75-17.3 45.75-12.5 45.75-7.7 47.15-4.9 48.55-2.1 51.42-2.1 54.3-2.1 55.82-4.93 57.35-7.75 57.35-12.5 57.35-17.25 55.82-20.08 54.3-22.9 51.42-22.9 48.55-22.9 47.15-20.1ZM76.3-22.25L72.2-22.25 72.2-24.3 76.3-24.3 76.3-31.5 83.8-31.5 83.8-24.3 89.45-24.3 89.45-22.25 83.8-22.25 83.8-5.55Q83.8-4.2 84.45-3.43 85.09-2.65 86.45-2.65 87.8-2.65 89.55-4.1L89.55-4.1 90.45-2.9Q86.45 0.75 82.45 0.75L82.45 0.75Q76.3 0.75 76.3-6.6L76.3-6.6 76.3-22.25ZM113.79-25L121.29-25 121.29-5.55Q121.29-4.2 121.94-3.43 122.59-2.65 123.94-2.65 125.29-2.65 127.04-4.1L127.04-4.1 127.94-2.9Q123.94 0.75 119.94 0.75L119.94 0.75Q115.19 0.75 114.09-3.7L114.09-3.7Q111.49 0.75 106.44 0.75L106.44 0.75Q100.69 0.75 97.69-2.98 94.69-6.7 94.69-12.48 94.69-18.25 97.92-22 101.14-25.75 106.94-25.75L106.94-25.75Q111.39-25.75 113.79-22.2L113.79-22.2 113.79-25ZM103.84-20.1Q102.44-17.3 102.44-12.5 102.44-7.7 103.84-4.9 105.24-2.1 108.12-2.1 110.99-2.1 112.52-4.93 114.04-7.75 114.04-12.5 114.04-17.25 112.52-20.08 110.99-22.9 108.12-22.9 105.24-22.9 103.84-20.1ZM161.69-33L161.69-33 161.19-33 161.19-2 166.19-2 166.19 0 148.69 0 148.69-2 153.69-2 153.69-33 153.19-33Q149.89-33 148.66-32.35 147.44-31.7 146.99-29.45L146.99-29.45 145.99-24.5 144.04-24.5 142.69-32.9Q142.69-33.9 143.14-34.38 143.59-34.85 144.11-34.93 144.64-35 145.74-35L145.74-35 169.14-35Q170.24-35 170.76-34.93 171.29-34.85 171.74-34.38 172.19-33.9 172.19-32.9L172.19-32.9 170.84-24.5 168.89-24.5 167.89-29.45Q167.44-31.7 166.21-32.35 164.99-33 161.69-33ZM185.99-35.2L185.99-35.2 185.99-22.35Q187.74-24.25 189.76-25 191.78-25.75 194.91-25.75 198.03-25.75 200.01-23.78 201.99-21.8 201.99-18.4L201.99-18.4 201.99-5.55Q201.99-4.2 202.63-3.43 203.28-2.65 204.63-2.65 205.99-2.65 207.74-4.1L207.74-4.1 208.63-2.9Q204.63 0.75 200.63 0.75L200.63 0.75Q194.49 0.75 194.49-6.6L194.49-6.6 194.49-19.45Q194.49-21 193.53-21.85 192.59-22.7 190.88-22.7 189.19-22.7 187.59-21.3 185.99-19.9 185.99-17.65L185.99-17.65 185.99 0 178.49 0 178.49-35.85Q175.74-35.15 174.28-33.4L174.28-33.4 172.94-34.95Q174.38-36.45 176.61-37.35 178.84-38.25 181.01-38.25 183.19-38.25 184.59-37.38 185.99-36.5 185.99-35.2ZM227.28-25.75L227.28-25.75Q228.78-25.75 228.78-22.9L228.78-22.9 228.78-5.55Q228.78-4.2 229.43-3.43 230.08-2.65 231.43-2.65 232.78-2.65 234.53-4.1L234.53-4.1 235.43-2.9Q231.43 0.75 227.43 0.75L227.43 0.75Q221.28 0.75 221.28-6.6L221.28-6.6 221.28-20.65Q218.93-19.7 215.58-19.35L215.58-19.35Q215.18-14.75 212.93-10.15L212.93-10.15 210.88-10.75Q212.28-14.3 212.38-19.2L212.38-19.2Q210.48-19.2 209.31-20.3 208.13-21.4 208.13-23.03 208.13-24.65 209.26-25.78 210.38-26.9 212.01-26.9 213.63-26.9 214.73-25.75 215.83-24.6 215.83-22.8L215.83-22.8 216.78-22.8Q220.73-22.8 225.18-25L225.18-25Q226.63-25.75 227.28-25.75ZM242.16-30.68Q240.98-31.85 240.98-33.5 240.98-35.15 242.16-36.33 243.33-37.5 244.98-37.5 246.63-37.5 247.81-36.33 248.98-35.15 248.98-33.5 248.98-31.85 247.81-30.68 246.63-29.5 244.98-29.5 243.33-29.5 242.16-30.68ZM244.03-25.75L244.03-25.75Q248.73-25.75 248.73-21.7L248.73-21.7 248.73-5.55Q248.73-4.2 249.38-3.43 250.03-2.65 251.38-2.65 252.73-2.65 254.48-4.1L254.48-4.1 255.38-2.9Q251.38 0.75 247.38 0.75L247.38 0.75Q241.23 0.75 241.23-6.6L241.23-6.6 241.23-23.35Q238.48-22.65 237.03-20.9L237.03-20.9 235.68-22.45Q237.13-23.95 239.36-24.85 241.58-25.75 244.03-25.75ZM260.43-22.25L256.33-22.25 256.33-24.3 260.43-24.3 260.43-29.35Q260.43-33.3 262.68-35.77 264.93-38.25 269.93-38.25L269.93-38.25Q272.38-38.25 274.6-37.35 276.83-36.45 278.28-34.95L278.28-34.95 276.93-33.4Q274.78-35.25 272.13-35.25L272.13-35.25Q267.93-35.25 267.93-29.75L267.93-29.75 267.93-24.3 273.58-24.3 273.58-22.25 267.93-22.25 267.93 6.6 260.43 6.6 260.43-22.25ZM281.63-22.25L277.52-22.25 277.52-24.3 281.63-24.3 281.63-31.5 289.13-31.5 289.13-24.3 294.77-24.3 294.77-22.25 289.13-22.25 289.13-5.55Q289.13-4.2 289.77-3.43 290.43-2.65 291.77-2.65 293.13-2.65 294.88-4.1L294.88-4.1 295.77-2.9Q291.77 0.75 287.77 0.75L287.77 0.75Q281.63 0.75 281.63-6.6L281.63-6.6 281.63-22.25Z" opacity="1" transform="matrix(1,0,0,1,0,0)" fill="#000000" class="wordmark-text-0" data-fill-palette-color="primary" id="text-0"></path></svg></g></svg></g></svg></g></svg></g><g></g></svg></g></svg></g></svg></g><defs></defs></svg><rect width="375.07953" height="138.77617999999998" fill="none" stroke="none" visibility="hidden"></rect></g></svg></g></svg>