<svg width="21" height="16" viewBox="0 0 21 16" fill="none" xmlns="http://www.w3.org/2000/svg">
<path fill-rule="evenodd" clip-rule="evenodd" d="M17.98 0H3.97998C3.18433 0 2.42127 0.316071 1.85866 0.87868C1.29605 1.44129 0.97998 2.20435 0.97998 3V13C0.97998 13.7956 1.29605 14.5587 1.85866 15.1213C2.42127 15.6839 3.18433 16 3.97998 16H17.98C18.7756 16 19.5387 15.6839 20.1013 15.1213C20.6639 14.5587 20.98 13.7956 20.98 13V3C20.98 2.20435 20.6639 1.44129 20.1013 0.87868C19.5387 0.316071 18.7756 0 17.98 0ZM3.97998 2H17.98C18.2452 2 18.4996 2.10536 18.6871 2.29289C18.8746 2.48043 18.98 2.73478 18.98 3L10.98 7.88L2.97998 3C2.97998 2.73478 3.08534 2.48043 3.27287 2.29289C3.46041 2.10536 3.71476 2 3.97998 2ZM18.98 13C18.98 13.2652 18.8746 13.5196 18.6871 13.7071C18.4996 13.8946 18.2452 14 17.98 14H3.97998C3.71476 14 3.46041 13.8946 3.27287 13.7071C3.08534 13.5196 2.97998 13.2652 2.97998 13V5.28L10.46 9.85C10.612 9.93777 10.7844 9.98397 10.96 9.98397C11.1355 9.98397 11.308 9.93777 11.46 9.85L18.98 5.28V13Z" fill="#fff"/>
</svg>
