<svg width="17" height="20" viewBox="0 0 17 20" fill="none" xmlns="http://www.w3.org/2000/svg">
<path fill-rule="evenodd" clip-rule="evenodd" d="M0.333274 6.28417C0 7.00879 0 7.83314 0 9.48184V14.6309C0 16.9206 0 18.0654 0.711312 18.7767C1.38072 19.4461 2.43408 19.4856 4.46425 19.4879V13.4167C4.46425 12.1938 5.45562 11.2024 6.67853 11.2024H10.3214C11.5443 11.2024 12.5357 12.1938 12.5357 13.4167V19.4879C14.5659 19.4856 15.6193 19.4461 16.2887 18.7767C17 18.0654 17 16.9206 17 14.6309V9.48184C17 7.83314 17 7.00879 16.6667 6.28417C16.3335 5.55956 15.7076 5.02308 14.4558 3.95012L13.2415 2.9093C10.9789 0.96993 9.84758 0.000244141 8.5 0.000244141C7.15242 0.000244141 6.02112 0.96993 3.75852 2.9093L2.54423 3.95012C1.29244 5.02308 0.666549 5.55956 0.333274 6.28417ZM10.5357 19.488V13.4167C10.5357 13.2983 10.4397 13.2024 10.3214 13.2024H6.67853C6.56019 13.2024 6.46425 13.2983 6.46425 13.4167V19.488H10.5357Z" fill="#000"/>
</svg>
