<svg width="18" height="19" viewBox="0 0 18 19" fill="none" xmlns="http://www.w3.org/2000/svg">
<path d="M13.371 14.587L12.716 13.931C12.6293 13.845 12.527 13.802 12.409 13.802C12.2903 13.802 12.188 13.845 12.102 13.931C12.016 14.0163 11.973 14.1173 11.973 14.234C11.973 14.3507 12.016 14.452 12.102 14.538L12.962 15.398C13.086 15.5227 13.2257 15.585 13.381 15.585C13.5363 15.585 13.676 15.5227 13.8 15.398L15.898 13.331C15.984 13.245 16.0303 13.146 16.037 13.034C16.0437 12.9213 15.9973 12.8157 15.898 12.717C15.812 12.631 15.7067 12.588 15.582 12.588C15.4573 12.588 15.3517 12.6313 15.265 12.718L13.371 14.587ZM12.731 4.731C12.873 4.731 12.9917 4.68333 13.087 4.588C13.1823 4.49267 13.2303 4.37367 13.231 4.231C13.2317 4.08833 13.1837 3.96933 13.087 3.874C12.9903 3.77867 12.8717 3.731 12.731 3.731H3.269C3.127 3.731 3.008 3.77867 2.912 3.874C2.816 3.96933 2.76833 4.08833 2.769 4.231C2.76967 4.37367 2.81733 4.49267 2.912 4.588C3.00667 4.68333 3.12567 4.731 3.269 4.731H12.731ZM14 18.116C12.886 18.116 11.941 17.7277 11.165 16.951C10.3883 16.175 10 15.23 10 14.116C10 13.002 10.3883 12.0567 11.165 11.28C11.9417 10.5033 12.8867 10.1153 14 10.116C15.1133 10.1167 16.0587 10.5047 16.836 11.28C17.6133 12.0553 18.0013 13.0007 18 14.116C18 15.2293 17.612 16.1743 16.836 16.951C16.0587 17.7277 15.1133 18.116 14 18.116ZM0 16.72V1.616C0 1.168 0.157333 0.786667 0.472 0.472C0.786667 0.157333 1.168 0 1.616 0H14.385C14.8317 0 15.2127 0.157333 15.528 0.472C15.8427 0.786667 16 1.168 16 1.616V6.731C16 6.93767 15.9153 7.106 15.746 7.236C15.5767 7.366 15.389 7.40833 15.183 7.363C14.665 7.27233 14.1483 7.23733 13.633 7.258C13.117 7.278 12.6047 7.35867 12.096 7.5H3.27C3.128 7.5 3.009 7.54767 2.913 7.643C2.817 7.73833 2.76933 7.85733 2.77 8C2.77067 8.14267 2.81833 8.26167 2.913 8.357C3.00767 8.45233 3.12667 8.5 3.27 8.5H10.082C9.58067 8.84733 9.13867 9.255 8.756 9.723C8.37333 10.191 8.058 10.7063 7.81 11.269H3.27C3.128 11.269 3.009 11.3167 2.913 11.412C2.817 11.5073 2.76933 11.6263 2.77 11.769C2.77067 11.9117 2.81833 12.0307 2.913 12.126C3.00767 12.2213 3.12667 12.269 3.27 12.269H7.48C7.408 12.5383 7.352 12.81 7.312 13.084C7.272 13.358 7.25167 13.644 7.251 13.942C7.251 14.26 7.27667 14.5793 7.328 14.9C7.37933 15.22 7.446 15.5373 7.528 15.852C7.57267 15.9713 7.54267 16.069 7.438 16.145C7.33267 16.221 7.23267 16.2243 7.138 16.155L6.889 15.985C6.815 15.9357 6.737 15.911 6.655 15.911C6.573 15.911 6.49467 15.9353 6.42 15.984L5.543 16.592C5.469 16.6407 5.391 16.665 5.309 16.665C5.227 16.665 5.14867 16.6407 5.074 16.592L4.197 15.984C4.12233 15.9353 4.044 15.911 3.962 15.911C3.88 15.911 3.802 15.9353 3.728 15.984L2.851 16.592C2.777 16.6413 2.699 16.666 2.617 16.666C2.535 16.666 2.45667 16.6413 2.382 16.592L1.505 15.985C1.43033 15.9363 1.352 15.912 1.27 15.912C1.188 15.912 1.11 15.9363 1.036 15.985L0.255 16.592C0.216333 16.618 0.131667 16.6613 0.000999928 16.722" fill="#000"/>
</svg>
