<svg width="18" height="20" viewBox="0 0 18 20" fill="none" xmlns="http://www.w3.org/2000/svg">
<path fill-rule="evenodd" clip-rule="evenodd" d="M3.5 14H13C14.8856 14 15.8284 14 16.4142 13.4142C17 12.8284 17 11.8856 17 10V5C17 3.11438 17 2.17157 16.4142 1.58579C15.8284 1 14.8856 1 13 1H5C3.11438 1 2.17157 1 1.58579 1.58579C1 2.17157 1 3.11438 1 5V16.5C1 15.1193 2.11929 14 3.5 14ZM6 4C4.89543 4 4 4.89543 4 6C4 7.10457 4.89543 8 6 8L12 8C13.1046 8 14 7.10457 14 6C14 4.89543 13.1046 4 12 4L6 4Z" fill="#48186F"/>
<path d="M16.4142 13.4142L15.7071 12.7071L15.7071 12.7071L16.4142 13.4142ZM16.4142 1.58579L15.7071 2.29289L15.7071 2.29289L16.4142 1.58579ZM6 4L6 3H6V4ZM6 8L6 7H6V8ZM12 8L12 9H12V8ZM12 4L12 3L12 3L12 4ZM13 13H3.5V15H13V13ZM15.7071 12.7071C15.631 12.7832 15.495 12.8774 15.0613 12.9357C14.5988 12.9979 13.9711 13 13 13V15C13.9145 15 14.701 15.0021 15.3278 14.9179C15.9833 14.8297 16.6117 14.631 17.1213 14.1213L15.7071 12.7071ZM16 10C16 10.9711 15.9979 11.5988 15.9357 12.0613C15.8774 12.495 15.7832 12.631 15.7071 12.7071L17.1213 14.1213C17.631 13.6117 17.8297 12.9833 17.9179 12.3278C18.0021 11.701 18 10.9145 18 10H16ZM16 5V10H18V5H16ZM15.7071 2.29289C15.7832 2.36902 15.8774 2.50496 15.9357 2.9387C15.9979 3.40121 16 4.02892 16 5H18C18 4.08546 18.0021 3.29896 17.9179 2.67221C17.8297 2.01669 17.631 1.38834 17.1213 0.878679L15.7071 2.29289ZM13 2C13.9711 2 14.5988 2.00212 15.0613 2.06431C15.495 2.12262 15.631 2.21677 15.7071 2.29289L17.1213 0.87868C16.6117 0.369017 15.9833 0.170272 15.3278 0.0821405C14.701 -0.00212374 13.9145 0 13 0V2ZM5 2H13V0H5V2ZM2.29289 2.29289C2.36902 2.21677 2.50496 2.12262 2.9387 2.06431C3.40121 2.00212 4.02892 2 5 2V0C4.08546 0 3.29896 -0.00212374 2.67221 0.0821405C2.01669 0.170272 1.38834 0.369017 0.87868 0.87868L2.29289 2.29289ZM2 5C2 4.02892 2.00212 3.40121 2.06431 2.9387C2.12262 2.50496 2.21677 2.36902 2.29289 2.29289L0.87868 0.87868C0.369017 1.38834 0.170272 2.01669 0.0821405 2.67221C-0.00212374 3.29896 0 4.08546 0 5H2ZM2 16.5V5H0V16.5H2ZM3.5 13C1.567 13 0 14.567 0 16.5H2C2 15.6716 2.67157 15 3.5 15V13ZM5 6C5 5.44772 5.44772 5 6 5V3C4.34315 3 3 4.34315 3 6H5ZM6 7C5.44772 7 5 6.55228 5 6H3C3 7.65685 4.34315 9 6 9V7ZM12 7L6 7L6 9L12 9L12 7ZM13 6C13 6.55229 12.5523 7 12 7V9C13.6569 9 15 7.65686 15 6H13ZM12 5C12.5523 5 13 5.44772 13 6H15C15 4.34315 13.6569 3 12 3L12 5ZM6 5L12 5L12 3L6 3L6 5ZM18 18H3.5V20H18V18ZM0 16.5C0 18.433 1.567 20 3.5 20V18C2.67157 18 2 17.3284 2 16.5H0Z" fill="#000"/>
</svg>
