<svg width="21" height="21" viewBox="0 0 21 21" fill="none" xmlns="http://www.w3.org/2000/svg">
<path fill-rule="evenodd" clip-rule="evenodd" d="M15.58 13C15.38 12.9 14.08 12.3 13.88 12.2C13.68 12.1 13.48 12.1 13.28 12.3C13.08 12.5 12.68 13.1 12.48 13.3C12.38 13.5 12.18 13.5 11.98 13.4C11.28 13.1 10.58 12.7 9.97998 12.2C9.47998 11.7 8.97998 11.1 8.57998 10.5C8.47998 10.3 8.57998 10.1 8.67998 9.99998C8.77998 9.89997 8.87998 9.69998 9.07998 9.59998C9.17998 9.49998 9.27998 9.29998 9.27998 9.19998C9.37998 9.09997 9.37998 8.89998 9.27998 8.79998C9.17998 8.69998 8.67998 7.49998 8.47998 6.99998C8.37998 6.29998 8.17998 6.29998 7.97998 6.29998C7.87998 6.29998 7.67998 6.29998 7.47998 6.29998C7.27998 6.29998 6.97998 6.49998 6.87998 6.59998C6.27998 7.19998 5.97998 7.89998 5.97998 8.69998C6.07998 9.59998 6.37998 10.5 6.97998 11.3C8.07998 12.9 9.47998 14.2 11.18 15C11.68 15.2 12.08 15.4 12.58 15.5C13.08 15.7 13.58 15.7 14.18 15.6C14.88 15.5 15.48 15 15.88 14.4C16.08 14 16.08 13.6 15.98 13.2C15.98 13.2 15.78 13.1 15.58 13ZM18.08 3.89998C14.18 -2.43187e-05 7.87998 -2.43187e-05 3.97998 3.89998C0.77998 7.09998 0.179981 12 2.37998 15.9L0.97998 21L6.27998 19.6C7.77998 20.4 9.37998 20.8 10.98 20.8C16.48 20.8 20.88 16.4 20.88 10.9C20.98 8.29997 19.88 5.79998 18.08 3.89998ZM15.38 17.9C14.08 18.7 12.58 19.2 10.98 19.2C9.47998 19.2 8.07998 18.8 6.77998 18.1L6.47998 17.9L3.37998 18.7L4.17998 15.7L3.97998 15.4C1.57998 11.4 2.77998 6.39998 6.67998 3.89998C10.58 1.39998 15.58 2.69998 17.98 6.49998C20.38 10.4 19.28 15.5 15.38 17.9Z" fill="#fff"/>
</svg>
